<svg width="504" height="757" viewBox="0 0 504 757" fill="none" xmlns="http://www.w3.org/2000/svg">
<g clip-path="url(#clip0)">
<path d="M221.229 252.375H112.722L136.738 188.909H245.245L221.229 252.375Z" fill="white" stroke="#4285F4" stroke-width="6" stroke-miterlimit="10"/>
<path d="M247.047 188.909L223.03 252.375H120.527L144.544 188.909H247.047Z" fill="white" stroke="#4285F4" stroke-width="6" stroke-miterlimit="10"/>
<path d="M327.484 15.7555H39.3632C35.5399 15.7555 32.4404 18.855 32.4404 22.6785V188.045C32.4404 191.868 35.5399 194.968 39.3632 194.968H327.484C331.307 194.968 334.407 191.868 334.407 188.045V22.6785C334.407 18.855 331.307 15.7555 327.484 15.7555Z" fill="white" stroke="#4285F4" stroke-width="6" stroke-miterlimit="10"/>
<path d="M244.879 188.909L238.148 207.577L136.654 215.383L146.567 188.909H244.879Z" fill="#DCF5FF"/>
<path d="M334.713 15.7555H46.5922C42.7689 15.7555 39.6694 18.855 39.6694 22.6785V188.045C39.6694 191.868 42.7689 194.968 46.5922 194.968H334.713C338.536 194.968 341.636 191.868 341.636 188.045V22.6785C341.636 18.855 338.536 15.7555 334.713 15.7555Z" fill="white" stroke="#4285F4" stroke-width="6" stroke-miterlimit="10"/>
<path d="M330.048 29.8357H54.6497V150.589H330.048V29.8357Z" fill="#3F4D79"/>
<path d="M330.048 29.8357H54.6497V150.589H330.048V29.8357Z" stroke="#4285F4" stroke-width="3" stroke-miterlimit="10"/>
<path d="M76.6128 29.8357V150.583" stroke="#4285F4" stroke-width="1.5" stroke-miterlimit="10"/>
<path d="M99.6868 29.8357V150.583" stroke="#4285F4" stroke-width="1.5" stroke-miterlimit="10"/>
<path d="M122.767 29.8357V150.583" stroke="#4285F4" stroke-width="1.5" stroke-miterlimit="10"/>
<path d="M145.841 29.8357V150.583" stroke="#4285F4" stroke-width="1.5" stroke-miterlimit="10"/>
<path d="M168.921 29.8357V150.583" stroke="#4285F4" stroke-width="1.5" stroke-miterlimit="10"/>
<path d="M191.995 29.8357V150.583" stroke="#4285F4" stroke-width="1.5" stroke-miterlimit="10"/>
<path d="M215.074 29.8357V150.583" stroke="#4285F4" stroke-width="1.5" stroke-miterlimit="10"/>
<path d="M238.148 29.8357V150.583" stroke="#4285F4" stroke-width="1.5" stroke-miterlimit="10"/>
<path d="M261.222 29.8357V150.583" stroke="#4285F4" stroke-width="1.5" stroke-miterlimit="10"/>
<path d="M284.302 29.8357V150.583" stroke="#4285F4" stroke-width="1.5" stroke-miterlimit="10"/>
<path d="M307.376 29.8357V150.583" stroke="#4285F4" stroke-width="1.5" stroke-miterlimit="10"/>
<path d="M330.066 101.822C320.315 101.822 321.702 86.2107 308.451 86.2107C294.953 86.2107 283.089 129.334 265.437 129.334C246.506 129.334 238.857 90.2036 223.054 90.2036C201.703 90.2036 201.871 120.388 178.161 120.388C154.451 120.388 142.869 64.0366 122.923 64.0366C104.79 64.0366 99.7348 116.275 76.7989 116.275C64.6045 116.275 62.5151 102.248 54.2654 102.248" fill="#DCF5FF"/>
<path d="M54.908 102.284C122.821 102.284 125.457 87.2314 154.457 87.2314C179.998 87.2314 189.281 114.851 209.695 114.851C232.967 114.851 244.645 83.7308 260.412 83.7308C276.179 83.7308 284.05 115.524 297.331 115.524C310.612 115.524 315.164 101.882 329.718 101.882L54.908 102.284Z" fill="#EA4335"/>
<path d="M54.1814 101.558C134.445 101.558 133.724 79.3417 157.285 79.3417C180.503 79.3417 191.91 121.3 212.343 121.3C235.615 121.3 242.087 74.5802 260.43 74.5802C279.331 74.5802 286.109 122.015 300.772 122.015C313.981 122.015 315.181 102.585 329.735 102.585" stroke="white" stroke-width="2" stroke-miterlimit="10"/>
<path d="M56.1929 160.665H329.76" stroke="#4285F4" stroke-width="3" stroke-miterlimit="10" stroke-linecap="round"/>
<path d="M55.5984 158.479H151.737V162.844H55.5984C55.0697 162.844 54.5627 162.634 54.1888 162.261C53.815 161.887 53.605 161.38 53.605 160.851V160.473C53.605 159.944 53.815 159.437 54.1888 159.063C54.5627 158.689 55.0697 158.479 55.5984 158.479Z" fill="#EA4335"/>
<path d="M156 164.496C157.996 164.496 159.614 162.877 159.614 160.881C159.614 158.885 157.996 157.266 156 157.266C154.004 157.266 152.385 158.885 152.385 160.881C152.385 162.877 154.004 164.496 156 164.496Z" fill="white" stroke="#EA4335" stroke-width="4" stroke-miterlimit="10"/>
<path d="M189.227 171.545H188.956C188.181 171.545 187.552 172.174 187.552 172.95V181.302C187.552 182.078 188.181 182.707 188.956 182.707H189.227C190.003 182.707 190.632 182.078 190.632 181.302V172.95C190.632 172.174 190.003 171.545 189.227 171.545Z" fill="#EA4335"/>
<path d="M195.177 171.545H194.906C194.13 171.545 193.501 172.174 193.501 172.95V181.302C193.501 182.078 194.13 182.707 194.906 182.707H195.177C195.953 182.707 196.582 182.078 196.582 181.302V172.95C196.582 172.174 195.953 171.545 195.177 171.545Z" fill="#EA4335"/>
<path d="M203.541 181.632V172.625C203.54 172.443 203.588 172.264 203.681 172.107C203.773 171.95 203.906 171.821 204.066 171.733C204.226 171.645 204.406 171.602 204.589 171.608C204.771 171.614 204.948 171.669 205.102 171.767L212.229 176.264C212.374 176.356 212.493 176.484 212.576 176.634C212.659 176.785 212.702 176.954 212.702 177.126C212.702 177.298 212.659 177.467 212.576 177.617C212.493 177.768 212.374 177.895 212.229 177.987L205.102 182.491C204.948 182.587 204.771 182.64 204.589 182.645C204.408 182.65 204.228 182.607 204.069 182.519C203.91 182.432 203.777 182.303 203.684 182.147C203.592 181.991 203.542 181.814 203.541 181.632Z" fill="#EA4335"/>
<path d="M177.122 174.727V177.729C177.122 178.927 176.647 180.075 175.8 180.922C174.953 181.769 173.805 182.244 172.607 182.244H169.533C168.243 182.244 167.006 181.732 166.094 180.82C165.182 179.908 164.67 178.671 164.67 177.381V177.381C164.67 176.09 165.182 174.853 166.094 173.94C167.006 173.027 168.243 172.513 169.533 172.511" stroke="#EA4335" stroke-width="3" stroke-linecap="round" stroke-linejoin="round"/>
<path d="M173.742 175.892L177.122 172.511L180.503 175.892" stroke="#EA4335" stroke-width="3" stroke-linecap="round" stroke-linejoin="round"/>
<path d="M0 322.362H371.344V340.61H0.294203" stroke="#EA4335" stroke-width="5" stroke-miterlimit="10"/>
<path d="M356.046 310.101V318.76H145.06V310.101L41.0142 246.089H252.006L347.333 304.739L356.046 310.101Z" fill="white" stroke="#4285F4" stroke-width="6" stroke-linejoin="round"/>
<path d="M145.06 310.101V318.76H41.0142V246.089L145.06 310.101Z" fill="white" stroke="#4285F4" stroke-width="6" stroke-linejoin="round"/>
<path d="M120.461 281.052L155.933 302.872" stroke="#4285F4" stroke-width="4" stroke-linecap="round" stroke-linejoin="round"/>
<path d="M152.817 298.045V299.69H147.834V298.045L144.604 294.628L139.86 289.615H144.85L152.817 298.045Z" fill="#EA4335"/>
<path d="M152.817 298.051V299.696H147.834L144.604 297.708L139.86 294.79V289.615L144.604 294.628L147.834 298.045V298.051H152.817Z" fill="#DC9600"/>
<path d="M115.039 272.436C115.039 273.379 112.974 274.141 110.428 274.141C107.882 274.141 105.817 273.379 105.817 272.436L107.018 263.634H113.796L115.039 272.436Z" fill="white" stroke="#4285F4" stroke-width="4" stroke-linejoin="round"/>
<path d="M110.422 265.525C112.296 265.525 113.814 264.702 113.814 263.688C113.814 262.673 112.296 261.85 110.422 261.85C108.549 261.85 107.03 262.673 107.03 263.688C107.03 264.702 108.549 265.525 110.422 265.525Z" fill="#EA4335" stroke="#4285F4" stroke-width="4" stroke-linejoin="round"/>
<path d="M98.9182 263.333C98.9182 264.276 96.8527 265.039 94.307 265.039C91.7612 265.039 89.6958 264.276 89.6958 263.333L90.8966 254.531H97.6813L98.9182 263.333Z" fill="white" stroke="#4285F4" stroke-width="4" stroke-linejoin="round"/>
<path d="M94.3008 256.422C96.1743 256.422 97.6931 255.6 97.6931 254.585C97.6931 253.57 96.1743 252.748 94.3008 252.748C92.4272 252.748 90.9084 253.57 90.9084 254.585C90.9084 255.6 92.4272 256.422 94.3008 256.422Z" fill="#EA4335" stroke="#4285F4" stroke-width="4" stroke-linejoin="round"/>
<path d="M84.1059 253.751C84.1059 254.693 82.0405 255.456 79.4947 255.456C76.949 255.456 74.8835 254.693 74.8835 253.751L76.0844 244.948H82.857L84.1059 253.751Z" fill="white" stroke="#4285F4" stroke-width="4" stroke-linejoin="round"/>
<path d="M79.4888 246.839C81.3623 246.839 82.8811 246.017 82.8811 245.002C82.8811 243.987 81.3623 243.165 79.4888 243.165C77.6152 243.165 76.0964 243.987 76.0964 245.002C76.0964 246.017 77.6152 246.839 79.4888 246.839Z" fill="#EA4335" stroke="#4285F4" stroke-width="4" stroke-linejoin="round"/>
<path d="M149.455 272.436C149.455 273.379 147.395 274.141 144.85 274.141C142.304 274.141 140.239 273.379 140.239 272.436L141.439 263.634H148.218L149.455 272.436Z" fill="white" stroke="#4285F4" stroke-width="4" stroke-linejoin="round"/>
<path d="M144.844 265.525C146.717 265.525 148.236 264.702 148.236 263.688C148.236 262.673 146.717 261.85 144.844 261.85C142.97 261.85 141.451 262.673 141.451 263.688C141.451 264.702 142.97 265.525 144.844 265.525Z" fill="#EA4335" stroke="#4285F4" stroke-width="4" stroke-linejoin="round"/>
<path d="M133.34 263.333C133.34 264.276 131.274 265.039 128.729 265.039C126.183 265.039 124.117 264.276 124.117 263.333L125.318 254.531H132.091L133.34 263.333Z" fill="white" stroke="#4285F4" stroke-width="4" stroke-linejoin="round"/>
<path d="M128.723 256.422C130.596 256.422 132.115 255.6 132.115 254.585C132.115 253.57 130.596 252.748 128.723 252.748C126.849 252.748 125.33 253.57 125.33 254.585C125.33 255.6 126.849 256.422 128.723 256.422Z" fill="#EA4335" stroke="#4285F4" stroke-width="4" stroke-linejoin="round"/>
<path d="M118.522 253.751C118.522 254.693 116.462 255.456 113.911 255.456C111.359 255.456 109.299 254.693 109.299 253.751L110.5 244.948H117.279L118.522 253.751Z" fill="white" stroke="#4285F4" stroke-width="4" stroke-linejoin="round"/>
<path d="M113.91 246.839C115.784 246.839 117.303 246.017 117.303 245.002C117.303 243.987 115.784 243.165 113.91 243.165C112.037 243.165 110.518 243.987 110.518 245.002C110.518 246.017 112.037 246.839 113.91 246.839Z" fill="#EA4335" stroke="#4285F4" stroke-width="4" stroke-linejoin="round"/>
<path d="M180.827 272.436C180.827 273.379 178.761 274.141 176.215 274.141C173.67 274.141 171.604 273.379 171.604 272.436L172.805 263.634H179.584L180.827 272.436Z" fill="white" stroke="#4285F4" stroke-width="4" stroke-linejoin="round"/>
<path d="M176.215 265.525C178.089 265.525 179.608 264.702 179.608 263.688C179.608 262.673 178.089 261.85 176.215 261.85C174.342 261.85 172.823 262.673 172.823 263.688C172.823 264.702 174.342 265.525 176.215 265.525Z" fill="#EA4335" stroke="#4285F4" stroke-width="4" stroke-linejoin="round"/>
<path d="M164.706 263.333C164.706 264.276 162.64 265.039 160.094 265.039C157.549 265.039 155.483 264.276 155.483 263.333L156.684 254.531H163.463L164.706 263.333Z" fill="white" stroke="#4285F4" stroke-width="4" stroke-linejoin="round"/>
<path d="M160.094 256.422C161.968 256.422 163.487 255.6 163.487 254.585C163.487 253.57 161.968 252.748 160.094 252.748C158.221 252.748 156.702 253.57 156.702 254.585C156.702 255.6 158.221 256.422 160.094 256.422Z" fill="#EA4335" stroke="#4285F4" stroke-width="4" stroke-linejoin="round"/>
<path d="M149.893 253.751C149.893 254.693 147.828 255.456 145.282 255.456C142.736 255.456 140.671 254.693 140.671 253.751L141.872 244.948H148.65L149.893 253.751Z" fill="white" stroke="#4285F4" stroke-width="4" stroke-linejoin="round"/>
<path d="M145.282 246.839C147.156 246.839 148.674 246.017 148.674 245.002C148.674 243.987 147.156 243.165 145.282 243.165C143.408 243.165 141.89 243.987 141.89 245.002C141.89 246.017 143.408 246.839 145.282 246.839Z" fill="#EA4335" stroke="#4285F4" stroke-width="4" stroke-linejoin="round"/>
<path d="M212.631 272.436C212.631 273.379 210.571 274.141 208.019 274.141C205.468 274.141 203.408 273.379 203.408 272.436L204.609 263.634H211.388L212.631 272.436Z" fill="white" stroke="#4285F4" stroke-width="4" stroke-linejoin="round"/>
<path d="M208.019 265.525C209.893 265.525 211.412 264.702 211.412 263.688C211.412 262.673 209.893 261.85 208.019 261.85C206.146 261.85 204.627 262.673 204.627 263.688C204.627 264.702 206.146 265.525 208.019 265.525Z" fill="#EA4335" stroke="#4285F4" stroke-width="4" stroke-linejoin="round"/>
<path d="M196.51 263.333C196.51 264.276 194.45 265.039 191.904 265.039C189.359 265.039 187.293 264.276 187.293 263.333L188.494 254.531H195.273L196.51 263.333Z" fill="white" stroke="#4285F4" stroke-width="4" stroke-linejoin="round"/>
<path d="M191.898 256.422C193.772 256.422 195.291 255.6 195.291 254.585C195.291 253.57 193.772 252.748 191.898 252.748C190.025 252.748 188.506 253.57 188.506 254.585C188.506 255.6 190.025 256.422 191.898 256.422Z" fill="#EA4335" stroke="#4285F4" stroke-width="4" stroke-linejoin="round"/>
<path d="M181.697 253.751C181.697 254.693 179.632 255.456 177.086 255.456C174.54 255.456 172.475 254.693 172.475 253.751L173.676 244.948H180.454L181.697 253.751Z" fill="white" stroke="#4285F4" stroke-width="4" stroke-linejoin="round"/>
<path d="M177.086 246.839C178.96 246.839 180.479 246.017 180.479 245.002C180.479 243.987 178.96 243.165 177.086 243.165C175.213 243.165 173.694 243.987 173.694 245.002C173.694 246.017 175.213 246.839 177.086 246.839Z" fill="#EA4335" stroke="#4285F4" stroke-width="4" stroke-linejoin="round"/>
<path d="M243.132 272.436C243.132 273.379 241.066 274.141 238.52 274.141C235.975 274.141 233.909 273.379 233.909 272.436L235.11 263.634H241.895L243.132 272.436Z" fill="white" stroke="#4285F4" stroke-width="4" stroke-linejoin="round"/>
<path d="M238.514 265.525C240.388 265.525 241.907 264.702 241.907 263.688C241.907 262.673 240.388 261.85 238.514 261.85C236.641 261.85 235.122 262.673 235.122 263.688C235.122 264.702 236.641 265.525 238.514 265.525Z" fill="#EA4335" stroke="#4285F4" stroke-width="4" stroke-linejoin="round"/>
<path d="M227.01 263.333C227.01 264.276 224.945 265.039 222.399 265.039C219.854 265.039 217.788 264.276 217.788 263.333L218.989 254.531H225.768L227.01 263.333Z" fill="white" stroke="#4285F4" stroke-width="4" stroke-linejoin="round"/>
<path d="M222.399 256.422C224.273 256.422 225.792 255.6 225.792 254.585C225.792 253.57 224.273 252.748 222.399 252.748C220.526 252.748 219.007 253.57 219.007 254.585C219.007 255.6 220.526 256.422 222.399 256.422Z" fill="#EA4335" stroke="#4285F4" stroke-width="4" stroke-linejoin="round"/>
<path d="M212.198 253.751C212.198 254.693 210.133 255.456 207.587 255.456C205.041 255.456 202.976 254.693 202.976 253.751L204.177 244.948H210.955L212.198 253.751Z" fill="white" stroke="#4285F4" stroke-width="4" stroke-linejoin="round"/>
<path d="M207.581 246.839C209.455 246.839 210.973 246.017 210.973 245.002C210.973 243.987 209.455 243.165 207.581 243.165C205.708 243.165 204.189 243.987 204.189 245.002C204.189 246.017 205.708 246.839 207.581 246.839Z" fill="#EA4335" stroke="#4285F4" stroke-width="4" stroke-linejoin="round"/>
<path d="M273.753 272.436C273.753 273.379 271.687 274.141 269.141 274.141C266.596 274.141 264.53 273.379 264.53 272.436L265.731 263.634H272.516L273.753 272.436Z" fill="white" stroke="#4285F4" stroke-width="4" stroke-linejoin="round"/>
<path d="M269.136 265.525C271.009 265.525 272.528 264.702 272.528 263.688C272.528 262.673 271.009 261.85 269.136 261.85C267.262 261.85 265.743 262.673 265.743 263.688C265.743 264.702 267.262 265.525 269.136 265.525Z" fill="#EA4335" stroke="#4285F4" stroke-width="4" stroke-linejoin="round"/>
<path d="M257.632 263.333C257.632 264.276 255.566 265.039 253.02 265.039C250.475 265.039 248.409 264.276 248.409 263.333L249.61 254.531H256.389L257.632 263.333Z" fill="white" stroke="#4285F4" stroke-width="4" stroke-linejoin="round"/>
<path d="M253.021 256.422C254.894 256.422 256.413 255.6 256.413 254.585C256.413 253.57 254.894 252.748 253.021 252.748C251.147 252.748 249.628 253.57 249.628 254.585C249.628 255.6 251.147 256.422 253.021 256.422Z" fill="#EA4335" stroke="#4285F4" stroke-width="4" stroke-linejoin="round"/>
<path d="M242.82 253.751C242.82 254.693 240.754 255.456 238.208 255.456C235.663 255.456 233.597 254.693 233.597 253.751L234.798 244.948H241.577L242.82 253.751Z" fill="white" stroke="#4285F4" stroke-width="4" stroke-linejoin="round"/>
<path d="M238.202 246.839C240.076 246.839 241.595 246.017 241.595 245.002C241.595 243.987 240.076 243.165 238.202 243.165C236.329 243.165 234.81 243.987 234.81 245.002C234.81 246.017 236.329 246.839 238.202 246.839Z" fill="#EA4335" stroke="#4285F4" stroke-width="4" stroke-linejoin="round"/>
<path d="M145.066 310.582H356.046" stroke="#4285F4" stroke-width="6" stroke-linejoin="round"/>
<path d="M152.271 281.052L187.737 302.872" stroke="#4285F4" stroke-width="4" stroke-linecap="round" stroke-linejoin="round"/>
<path d="M167.467 290.611L159.494 282.175H164.483L172.451 290.611H167.467Z" fill="#EA4335"/>
<path d="M167.461 290.611H172.451V292.262H167.461L164.237 290.263L159.488 287.345V282.175L167.461 290.611Z" fill="#DC9600"/>
<path d="M183.636 281.052L219.109 302.872" stroke="#4285F4" stroke-width="4" stroke-linecap="round" stroke-linejoin="round"/>
<path d="M211.009 298.045L203.036 289.609H208.025L215.993 298.045H211.009Z" fill="#EA4335"/>
<path d="M211.009 298.045H215.999V299.69H211.009L207.785 297.696L203.036 294.778V289.609L211.009 298.045Z" fill="#DC9600"/>
<path d="M214.57 281.052L250.042 302.872" stroke="#4285F4" stroke-width="4" stroke-linecap="round" stroke-linejoin="round"/>
<path d="M241.937 298.045L233.969 289.609H238.953L246.926 298.045H241.937Z" fill="#EA4335"/>
<path d="M241.937 298.045H246.926V299.69H241.937L238.713 297.696L233.963 294.778V289.609L241.937 298.045Z" fill="#DC9600"/>
<path d="M246.812 281.052L282.285 302.872" stroke="#4285F4" stroke-width="4" stroke-linecap="round" stroke-linejoin="round"/>
<path d="M274.185 298.045L266.211 289.609H271.201L279.168 298.045H274.185Z" fill="#EA4335"/>
<path d="M274.185 298.045H279.174V299.69H274.185L270.961 297.696L266.211 294.778V289.609L274.185 298.045Z" fill="#DC9600"/>
<path d="M277.433 281.052L312.906 302.872" stroke="#4285F4" stroke-width="4" stroke-linecap="round" stroke-linejoin="round"/>
<path d="M304.806 298.045L296.833 289.609H301.822L309.789 298.045H304.806Z" fill="#EA4335"/>
<path d="M304.806 298.045H309.795V299.69H304.806L301.582 297.696L296.833 294.778V289.609L304.806 298.045Z" fill="#DC9600"/>
<path d="M436.543 699.064C436.543 708.016 417.366 748.3 411.146 748.3H351.207C351.207 748.3 351.963 724.667 370.624 722.799C370.624 722.799 385.538 668.304 392.503 668.16C402.992 667.973 417.384 665.92 417.384 665.92C421.863 670.195 436.543 690.105 436.543 699.064Z" fill="#DAF3F9"/>
<path d="M349.321 753.127H411.164C417.384 753.127 436.561 708.016 436.561 699.088C431.086 695.227 412.347 691.739 405.706 704.186C397.24 720.073 388.847 744.565 385.556 747.951H349.321V753.127Z" fill="#AAD9F3"/>
<path d="M385.538 651.605L392.503 668.208C392.503 668.208 409.314 671.996 417.384 665.968V647.432C406.93 649.857 396.264 651.255 385.538 651.605Z" fill="#C36F0B"/>
<path d="M293.309 497.161C297.139 509.596 369.351 644.526 377.805 649.792C386.259 655.058 420.867 647.589 422.362 645.589C423.857 643.59 406.751 503.886 396.79 502.817C386.829 501.749 293.309 497.161 293.309 497.161Z" fill="#2D4263"/>
<path d="M498.146 516.279L537.173 753.752C537.24 754.155 537.447 754.521 537.758 754.786C538.069 755.051 538.464 755.197 538.872 755.199V755.199C539.112 755.198 539.35 755.147 539.57 755.05C539.789 754.952 539.986 754.81 540.148 754.632C540.309 754.454 540.432 754.244 540.508 754.016C540.584 753.788 540.612 753.547 540.589 753.307L517.503 512.995" stroke="#3F4D79" stroke-width="6" stroke-miterlimit="10"/>
<path d="M372.071 515.901L333.044 753.752C332.978 754.155 332.772 754.522 332.46 754.787C332.149 755.052 331.754 755.198 331.345 755.199V755.199C331.104 755.199 330.867 755.149 330.647 755.052C330.427 754.954 330.23 754.812 330.069 754.634C329.907 754.455 329.785 754.245 329.71 754.017C329.635 753.788 329.609 753.546 329.634 753.307L352.738 512.622" stroke="#3F4D79" stroke-width="6" stroke-miterlimit="10"/>
<path d="M540.793 492.268C540.793 494.417 537.191 496.471 530.706 498.272C513.895 503.021 477.72 506.3 435.841 506.3C394.532 506.3 358.796 503.112 341.672 498.464L340.975 498.272C334.509 496.471 330.888 494.417 330.888 492.268C330.901 491.838 331.037 491.422 331.279 491.067C335.908 483.892 380.957 478.253 435.841 478.253C493.805 478.229 540.793 484.516 540.793 492.268Z" fill="white" stroke="#4285F4" stroke-width="6" stroke-miterlimit="10"/>
<path d="M540.793 492.268V504.276C540.793 512.028 493.805 518.309 435.835 518.309C392.245 518.309 354.869 514.754 339.006 509.698C333.777 508.029 330.883 506.198 330.883 504.294V492.286C330.883 494.435 334.485 496.489 340.97 498.29L341.666 498.482C358.79 503.13 394.502 506.318 435.835 506.318C477.72 506.318 513.889 503.039 530.7 498.29C537.173 496.453 540.793 494.417 540.793 492.268Z" fill="white" stroke="#4285F4" stroke-width="6" stroke-miterlimit="10"/>
<path d="M324.824 665.968C329.628 668.538 352.834 681.579 352.834 692.111C352.834 702.643 330.486 718.128 322.729 725.531C314.971 732.935 307.574 753.674 299.133 754.73C290.691 755.787 242.844 754.73 242.844 754.73C242.844 754.73 238.677 738.146 259.589 731.512C284.597 723.58 293.002 683.897 293.002 683.897L324.824 665.968Z" fill="#DAF3F9"/>
<path d="M352.84 690.91C352.84 701.46 330.492 716.927 322.735 724.33C314.977 731.734 307.58 752.473 299.138 753.53C290.697 754.586 242.85 753.53 242.85 753.53" stroke="#AAD9F3" stroke-width="8" stroke-miterlimit="10" stroke-linecap="round"/>
<path d="M316.286 652.764C316.286 652.764 315.872 659.97 324.83 665.974C333.788 671.978 301.444 684.389 293.008 683.891L283.191 667.499C283.191 667.499 309.484 658.679 316.286 652.764Z" fill="#C36F0B"/>
<path d="M522.877 432.53C522.877 432.53 542.594 497.81 495.012 502.481C436.543 508.221 294.509 497.762 294.509 497.762C294.509 497.762 322.2 594.432 323.689 648.675C323.689 648.675 299.913 669.018 271.057 668.49C271.057 668.49 146.837 497.594 186.044 442.221C220.76 393.19 379.564 391.274 379.564 391.274C379.564 391.274 386.066 431.99 522.877 432.53Z" fill="#3F4D79"/>
<path d="M562.294 298.555C549.763 347.653 537.227 384.52 546.893 428.447C546.893 428.447 507.134 450.862 426.468 427.913C391.044 417.826 364.626 388.765 364.626 388.765C364.626 388.765 392.767 363.222 390.642 342.045C388.798 323.635 380.777 290.635 376.082 260.986C359.48 252.141 339.108 238.608 324.926 220.156C324.926 220.156 326.655 207.859 356.616 170.212C380.068 140.748 429.867 138.749 449.38 137.092C478.2 131.238 500.601 130.109 514.261 130.349C526.726 130.571 536.044 136.834 543.801 146.561C566.041 174.607 581.507 223.284 562.294 298.555Z" fill="#EA4335"/>
<path d="M403.208 273.199C383.743 297.426 358.543 321.888 338.363 321.011C274.575 318.231 223.87 296.544 205.276 285.808C198.485 285.459 176.348 280.662 172.781 279.959C168.992 279.215 147.774 273.817 148.398 270.659C149.023 267.5 153.412 257.065 155.159 254.447C156.906 251.829 171.154 242.967 181.169 242.252C189.485 241.652 203.084 253.204 207.461 257.143C222.646 256.158 318.063 247.5 318.063 247.5C318.063 247.5 322.482 239.166 330.15 226.485C355.835 255.131 395.283 270.352 403.208 273.199Z" fill="#C36F0B"/>
<path d="M172.781 279.947C168.993 279.203 148.669 274.105 147.06 271.313C143.865 265.783 148.344 258.446 151.148 256.428C153.718 254.573 171.16 242.937 181.169 242.222C181.169 242.222 165.558 259.605 172.763 279.947" fill="#B65A18"/>
<path d="M403.22 273.199C399.678 277.594 395.955 282.013 392.101 286.276C382.656 282.121 349.501 265.561 328.187 229.727C328.787 228.676 329.471 227.583 330.156 226.461C355.848 255.137 395.307 270.352 403.22 273.199Z" fill="#B65A18"/>
<path d="M324.896 219.526C352.791 255.828 404.625 273.084 404.625 273.084L417.792 256.008" stroke="white" stroke-width="6" stroke-miterlimit="10" stroke-linecap="round"/>
<path d="M529.265 134.005C500.103 118.616 497.479 72.851 497.479 72.851L434.04 97.9792L450.629 136.587C450.629 136.587 461.382 144.267 496.501 143.684C531.619 143.102 529.265 134.005 529.265 134.005Z" fill="#C36F0B"/>
<path d="M472.592 82.7102C469.476 90.648 465.849 90.8821 465.849 90.8821C465.849 90.8821 464.402 120.514 446.108 125.491C446.041 125.513 445.973 125.529 445.904 125.539L434.04 97.9793L472.592 82.7102Z" fill="#B65A18"/>
<path d="M450.004 138.455C450.004 138.455 461.376 145.546 496.5 145.546C529.295 145.546 528.641 135.867 528.641 135.867" stroke="white" stroke-width="6" stroke-miterlimit="10" stroke-linecap="round"/>
<path d="M471.385 87.0633C471.385 87.0633 460.212 104.476 449.038 108.547C436.718 113.056 415.865 111.807 410.425 96.5802C405.88 83.875 423.292 66.048 427.255 30.184C430.353 2.23365 476.201 35.5338 473.793 61.2926L471.385 87.0633Z" fill="#C36F0B"/>
<path d="M434.7 8.65834C434.7 8.65834 421.065 5.22985 414.604 13.8101C408.6 21.8019 409.675 43.3395 438.393 47.4345C455.991 49.9383 444.721 70.5933 449.686 72.869C454.652 75.1447 461.965 55.3243 466.636 71.0257C470.112 82.7041 470.082 90.3717 483.718 94.6228C497.353 98.8739 500.812 92.0229 500.812 92.0229C500.812 92.0229 496.261 77.012 509.884 51.5415C516.567 39.0284 507.068 19.5202 491.355 17.5328C475.642 15.5453 474.544 7.07319 463.286 5.95038C449.062 4.53335 441.245 22.3723 433.998 20.619C426.751 18.8658 430.665 12.2129 434.7 8.65834Z" fill="#3F4D79"/>
<path d="M409.927 16.1759C403.923 24.1677 406.985 43.9461 440.728 46.8582" stroke="#3F4D79" stroke-width="3" stroke-miterlimit="10"/>
<path d="M432.076 19.6103C432.076 19.6103 452.55 78.5431 511.877 67.7233C511.877 67.7233 524.486 34.369 512.334 20.601C498.716 5.13379 473.613 -4.35911 455.474 1.9875C437.336 8.33411 432.076 19.6103 432.076 19.6103Z" fill="#DAF3F9"/>
<path d="M511.253 68.3416C511.253 68.3416 526.617 25.3384 501.778 21.8439C492.069 20.4749 474.507 31.5169 473.078 63.9224" stroke="#4285F4" stroke-width="3" stroke-miterlimit="10"/>
<path d="M472.46 63.9225C472.46 63.9225 493.757 94.5027 529.499 96.262C565.242 98.0213 511.889 67.7232 511.889 67.7232C511.889 67.7232 497.275 70.137 472.46 63.9225Z" fill="#4285F4"/>
</g>
<defs>
<clipPath id="clip0">
<rect width="571" height="757" fill="white"/>
</clipPath>
</defs>
</svg>
